<?xml version="1.0" standalone="no"?>
<!DOCTYPE svg PUBLIC "-//W3C//DTD SVG 20010904//EN"
 "http://www.w3.org/TR/2001/REC-SVG-20010904/DTD/svg10.dtd">
<svg version="1.0" xmlns="http://www.w3.org/2000/svg"
 width="1536.000000pt" height="1024.000000pt" viewBox="0 0 1536.000000 1024.000000"
 preserveAspectRatio="xMidYMid meet">

<g transform="translate(0.000000,1024.000000) scale(0.100000,-0.100000)"
fill="#000000" stroke="none">
<path d="M0 5120 l0 -5120 7680 0 7680 0 0 5120 0 5120 -7680 0 -7680 0 0
-5120z m8429 3975 c54 -266 43 -441 -36 -600 -50 -99 -93 -145 -289 -309 -55
-45 -55 -45 116 -67 92 -11 96 -11 135 11 22 12 55 40 73 60 18 21 60 60 95
85 204 154 404 162 804 34 54 -18 103 -36 108 -41 18 -18 -197 -199 -295 -248
-122 -61 -324 -88 -449 -59 -59 13 -62 5 -9 -22 130 -66 333 -213 480 -346
154 -141 266 -272 381 -448 160 -245 217 -403 243 -667 l7 -68 -40 0 -40 0 -7
81 c-17 209 -84 372 -257 634 -208 313 -498 581 -854 787 -171 99 -352 158
-490 158 l-39 0 39 -40 c23 -23 49 -40 61 -40 13 0 25 -4 28 -8 3 -5 38 -14
78 -22 260 -45 359 -119 468 -344 79 -164 129 -333 102 -350 -27 -16 -338 94
-429 153 -147 95 -209 211 -268 499 -9 41 -21 41 -29 -1 -3 -19 -18 -45 -32
-58 -35 -33 -123 -33 -178 -1 -20 12 -39 22 -42 22 -3 0 -2 -16 2 -35 10 -58
-4 -121 -36 -155 -23 -24 -36 -30 -70 -30 -74 0 -130 79 -130 183 0 20 -3 37
-6 37 -3 0 -24 -16 -46 -35 -112 -95 -250 -72 -235 40 3 22 9 50 12 62 7 20 5
22 -21 14 -56 -16 -210 -83 -294 -128 -98 -53 -289 -177 -340 -222 l-35 -30
41 -1 c24 0 65 11 95 24 94 43 205 67 339 73 107 5 138 2 215 -16 231 -56 413
-201 528 -421 44 -83 97 -223 97 -254 0 -21 -3 -20 -112 8 -111 29 -153 34
-369 45 -182 10 -270 32 -379 94 -79 44 -196 165 -278 288 -39 59 -78 109 -87
113 -28 10 -100 7 -150 -8 -73 -23 -149 -78 -284 -210 -141 -139 -215 -226
-293 -346 -106 -163 -138 -253 -159 -451 -12 -106 -13 -109 -37 -109 l-25 0 7
88 c9 128 33 256 65 347 33 99 119 245 204 350 87 108 255 268 374 357 54 40
101 77 105 83 17 23 5 79 -37 172 -79 175 -101 319 -70 451 21 87 50 140 149
267 89 113 151 221 181 313 12 39 21 52 33 50 10 -2 47 -40 83 -86 142 -177
205 -380 179 -575 -16 -114 -59 -232 -114 -313 -14 -21 -24 -40 -22 -42 2 -2
32 11 67 28 85 43 264 114 366 145 46 14 81 30 78 35 -4 6 -12 10 -19 10 -24
0 -102 78 -112 112 -13 41 -2 88 27 114 35 32 114 26 178 -13 29 -18 53 -33
54 -33 1 0 1 20 -1 44 -2 25 3 69 12 100 13 43 23 59 46 71 44 23 76 18 114
-16 39 -34 56 -79 56 -151 0 -27 2 -48 5 -48 2 0 20 11 40 24 20 14 40 26 46
28 8 3 7 33 -1 101 -29 247 69 466 289 641 96 76 204 147 213 138 3 -4 16 -52
27 -107z m-2049 -2889 c56 -20 72 -59 72 -174 1 -221 -91 -509 -225 -707 -23
-33 -86 -116 -142 -185 -116 -144 -162 -215 -234 -358 -102 -203 -151 -412
-151 -640 l0 -134 -27 7 c-14 3 -49 21 -77 40 -186 123 -316 318 -382 575 -35
134 -43 347 -20 490 47 281 181 550 376 754 136 142 279 239 430 292 141 49
306 67 380 40z m-2455 -58 c4 -4 -1 -78 -10 -166 -26 -261 -34 -507 -34 -1062
0 -519 7 -722 27 -742 6 -6 87 -13 184 -16 352 -10 559 33 779 164 66 40 80
31 73 -48 -10 -96 -53 -301 -65 -309 -13 -8 -1286 -1 -1396 7 -86 7 -81 -9
-58 191 47 406 49 1346 4 1852 -9 102 -9 125 2 132 16 11 484 8 494 -3z m4691
-19 c253 -28 443 -120 556 -270 75 -100 110 -215 110 -369 0 -178 -49 -298
-172 -420 -74 -74 -165 -132 -252 -160 -21 -6 -38 -13 -38 -15 0 -2 32 -43 70
-92 39 -48 102 -138 140 -200 38 -62 101 -165 140 -228 39 -63 91 -139 115
-169 45 -54 151 -141 193 -157 33 -13 27 -44 -12 -68 -64 -40 -144 -61 -230
-61 -150 0 -260 46 -359 149 -75 78 -101 121 -235 391 -55 113 -118 228 -139
255 -68 88 -184 131 -338 123 l-70 -3 2 -240 c1 -170 8 -293 24 -427 11 -103
19 -195 15 -203 -5 -13 -41 -15 -249 -15 -186 0 -247 3 -255 13 -8 9 -7 43 3
117 31 243 39 422 39 955 0 513 -8 735 -35 978 -6 53 -9 104 -5 112 5 13 64
15 446 15 246 0 483 -5 536 -11z m-1907 -29 c75 -38 190 -141 256 -228 261
-345 293 -815 84 -1252 -183 -384 -497 -645 -843 -701 -142 -22 -255 -1 -292
57 -41 61 -23 267 37 449 66 198 163 361 335 561 179 208 270 384 328 638 24
103 39 275 32 377 -4 68 -2 99 6 107 15 15 12 16 57 -8z m4238 8 c6 -7 13 -26
17 -43 4 -16 27 -77 51 -135 67 -159 281 -676 390 -940 238 -576 369 -867 444
-990 44 -73 53 -70 -248 -70 -203 0 -271 3 -279 13 -5 6 -13 37 -17 67 -11 80
-35 160 -106 354 l-64 173 -254 6 c-413 11 -647 9 -658 -5 -13 -16 -54 -144
-87 -268 -23 -87 -42 -204 -48 -290 l-3 -35 -189 -3 c-104 -1 -194 2 -199 7
-5 5 14 57 46 127 114 250 704 1700 738 1812 10 35 10 60 1 128 -7 47 -10 89
-7 94 10 16 460 13 472 -2z m-7121 -2594 c23 -8 52 -26 64 -39 l24 -25 -20
-21 -21 -20 -48 25 c-58 31 -147 35 -202 9 -127 -60 -136 -268 -16 -349 63
-42 171 -38 234 8 l29 22 27 -26 26 -27 -47 -29 c-190 -121 -426 -3 -426 214
0 207 177 329 376 258z m648 -2 c100 -45 156 -134 156 -249 0 -77 -17 -127
-62 -177 -72 -82 -185 -111 -303 -77 -100 29 -175 139 -175 255 0 200 201 329
384 248z m3231 -1 c22 -10 48 -27 58 -39 18 -20 18 -21 -2 -44 -18 -19 -24
-20 -39 -10 -38 28 -84 42 -137 42 -111 0 -185 -69 -193 -180 -6 -76 10 -121
58 -164 69 -62 171 -71 245 -20 43 29 47 29 70 4 17 -19 17 -21 0 -40 -36 -39
-104 -63 -179 -63 -118 0 -196 46 -242 140 -50 101 -31 238 44 316 76 81 211
105 317 58z m632 -1 c94 -41 143 -114 151 -221 7 -100 -11 -153 -72 -215 -41
-40 -64 -54 -112 -67 -75 -21 -93 -21 -168 0 -83 23 -148 87 -172 169 -68 237
150 433 373 334z m-3147 -15 l0 -35 -135 0 -135 0 0 -80 0 -80 120 0 120 0 0
-35 0 -35 -120 0 -120 0 0 -115 0 -115 -35 0 -35 0 0 265 0 265 170 0 170 0 0
-35z m540 0 l0 -35 -135 0 -135 0 0 -80 0 -80 98 -2 c53 -1 107 -2 120 -2 18
0 22 -6 22 -33 l0 -33 -120 0 -120 0 0 -115 0 -115 -35 0 -35 0 0 265 0 265
170 0 170 0 0 -35z m550 0 l0 -35 -135 0 -135 0 0 -80 0 -80 120 0 120 0 0
-35 0 -35 -120 0 -120 0 0 -80 0 -80 135 0 135 0 0 -35 0 -35 -170 0 -170 0 0
265 0 265 170 0 170 0 0 -35z m560 0 l0 -35 -135 0 -135 0 0 -80 0 -80 120 0
120 0 0 -35 0 -35 -120 0 -120 0 0 -80 0 -80 140 0 140 0 0 -35 0 -35 -175 0
-175 0 0 265 0 265 170 0 170 0 0 -35z m1990 -42 c25 -42 66 -113 93 -157 26
-45 52 -81 58 -81 6 0 35 43 65 95 31 52 73 123 96 158 38 58 43 62 79 62 l39
0 0 -266 0 -265 -36 3 -37 3 -1 192 c-1 188 -6 215 -31 167 -5 -10 -43 -74
-83 -142 -87 -147 -97 -150 -152 -56 -84 147 -133 224 -141 224 -5 0 -9 -88
-9 -195 l0 -195 -35 0 -35 0 0 265 0 265 43 0 c42 0 42 0 87 -77z m972 65 c99
-29 144 -157 89 -251 -32 -55 -74 -72 -198 -76 l-113 -3 0 -94 0 -94 -35 0
-35 0 0 265 0 265 126 0 c70 0 144 -5 166 -12z m602 -81 c22 -50 72 -170 112
-264 l72 -173 -39 0 c-38 0 -39 1 -68 65 l-30 65 -134 0 -134 0 -24 -62 c-24
-61 -26 -63 -63 -66 -46 -4 -52 -24 66 246 49 114 96 224 105 245 14 34 18 37
57 37 l41 0 39 -93z m598 -107 c84 -109 156 -199 161 -200 4 0 7 90 7 200 l0
200 35 0 35 0 0 -265 0 -265 -37 1 c-37 0 -41 4 -171 172 -158 204 -168 217
-176 217 -3 0 -6 -88 -6 -195 l0 -195 -34 0 -34 0 -4 113 c-1 61 -1 181 0 265
l4 152 33 0 c32 0 42 -10 187 -200z m594 75 c43 -69 81 -125 84 -125 3 1 34
49 70 107 88 145 88 145 133 141 l37 -3 -105 -160 -105 -160 0 -102 0 -103
-35 0 -35 0 0 102 0 101 -72 111 c-39 61 -86 135 -105 164 l-34 52 44 0 45 0
78 -125z m-1596 -960 l0 -25 -2302 0 c-1267 0 -2313 3 -2325 6 -14 4 -23 14
-23 25 0 19 55 19 2325 19 l2325 0 0 -25z m-4612 -608 l3 -117 54 0 c42 0 55
-3 55 -15 0 -12 -14 -15 -69 -15 l-70 0 -3 131 c-2 72 -1 133 1 135 18 18 26
-16 29 -119z m440 103 c36 -22 62 -72 62 -121 0 -143 -194 -179 -245 -45 -13
35 -14 51 -6 82 14 51 19 57 61 83 44 26 86 27 128 1z m389 4 c21 -11 31 -20
25 -26 -6 -6 -17 -6 -30 1 -38 20 -81 13 -113 -18 -24 -24 -29 -38 -29 -76 0
-38 5 -52 30 -77 30 -30 49 -33 120 -16 34 7 19 -18 -19 -32 -36 -13 -46 -13
-83 0 -55 20 -80 55 -81 116 -1 61 22 106 65 127 42 21 71 21 115 1z m331 -72
c18 -48 42 -108 53 -134 16 -41 16 -48 4 -48 -9 0 -23 16 -32 35 -16 34 -18
35 -79 35 -62 0 -63 0 -69 -31 -6 -27 -29 -48 -40 -37 -9 9 48 137 58 131 6
-3 7 -1 3 6 -4 6 0 35 10 64 21 66 22 67 42 67 12 0 27 -25 50 -88z m250 -35
l3 -117 54 0 c42 0 55 -3 55 -15 0 -12 -14 -15 -70 -15 l-70 0 0 136 c0 104 3
135 13 132 8 -3 13 -39 15 -121z m951 95 c40 -29 52 -61 48 -120 -3 -43 -10
-59 -34 -83 -37 -38 -93 -48 -146 -25 -48 20 -82 87 -71 142 7 39 46 91 78
105 31 13 95 3 125 -19z m362 -1 c29 -35 24 -76 -10 -102 l-29 -22 32 -46 c49
-70 49 -71 27 -71 -13 0 -30 18 -53 55 -27 46 -37 55 -58 53 -23 -3 -25 -8
-28 -55 -2 -38 -7 -53 -18 -53 -11 0 -14 24 -14 136 l0 136 66 -4 c55 -3 70
-8 85 -27z m228 -106 c-1 -109 -4 -135 -15 -135 -11 0 -14 26 -14 135 0 115 2
135 15 135 14 0 16 -20 14 -135z m346 121 c19 -8 35 -19 35 -24 0 -18 -13 -21
-34 -7 -51 36 -127 4 -145 -60 -20 -75 23 -135 98 -135 49 0 61 9 61 46 0 30
-3 34 -25 34 -14 0 -25 5 -25 10 0 6 18 10 40 10 l40 0 0 -55 c0 -54 0 -54
-37 -64 -57 -16 -94 -13 -131 9 -85 52 -78 197 11 235 41 18 70 18 112 1z
m245 -121 c0 -113 -2 -135 -15 -135 -13 0 -15 22 -15 135 0 113 2 135 15 135
13 0 15 -22 15 -135z m281 33 l74 -103 3 103 c2 82 6 102 17 102 12 0 15 -23
15 -136 0 -104 -3 -135 -12 -132 -7 3 -47 49 -88 104 l-75 99 -3 -102 c-2 -83
-6 -103 -17 -103 -12 0 -15 23 -15 135 0 106 3 135 13 135 8 0 47 -46 88 -102z
m406 70 c6 -18 29 -79 51 -135 30 -78 37 -103 26 -103 -8 0 -22 16 -31 35 -16
34 -18 35 -79 35 -62 0 -63 0 -69 -31 -6 -28 -29 -48 -41 -36 -3 3 18 64 46
136 56 141 77 162 97 99z m263 -72 c0 -57 3 -111 6 -120 5 -12 20 -16 60 -16
41 0 54 -4 54 -15 0 -12 -15 -15 -75 -15 l-75 0 0 135 c0 113 2 135 15 135 12
0 15 -18 15 -104z m-2620 -20 c6 -8 10 -25 8 -38 -2 -19 -9 -23 -38 -23 -29 0
-36 4 -38 23 -4 28 14 52 38 52 10 0 23 -7 30 -14z m-1541 -415 c59 -42 65
-144 11 -204 -26 -29 -33 -32 -89 -32 -55 0 -64 3 -92 31 -23 23 -33 44 -36
76 -14 122 109 198 206 129z m660 18 c17 -6 31 -18 31 -26 0 -11 -5 -13 -17
-8 -37 16 -69 16 -82 1 -21 -25 -9 -50 35 -71 60 -29 74 -44 74 -77 0 -39 -40
-78 -79 -78 -33 0 -81 19 -81 31 0 15 22 21 33 10 26 -26 107 -4 107 29 0 15
-27 36 -62 50 -50 20 -68 40 -68 75 0 31 19 56 50 68 22 8 24 8 59 -4z m3229
-85 c23 -46 46 -84 51 -84 5 0 30 38 56 85 66 121 75 115 75 -45 0 -80 -4
-130 -10 -130 -6 0 -10 40 -10 100 0 55 -3 100 -7 100 -5 0 -26 -35 -48 -77
-22 -42 -45 -79 -52 -81 -6 -1 -31 33 -55 77 -23 45 -46 81 -50 81 -5 0 -8
-45 -8 -100 0 -55 -4 -100 -9 -100 -9 0 -25 245 -16 259 14 24 44 -7 83 -85z
m-4282 78 c40 -26 38 -89 -3 -121 l-24 -20 36 -49 c39 -55 41 -62 20 -62 -8 0
-31 25 -51 55 -27 41 -43 55 -60 55 -22 0 -24 -4 -24 -55 0 -42 -3 -55 -15
-55 -13 0 -15 21 -15 130 l0 130 63 0 c34 0 67 -4 73 -8z m731 -57 c62 -160
73 -195 58 -195 -7 0 -19 16 -26 35 -13 35 -13 35 -76 35 -62 0 -63 0 -77 -35
-8 -19 -20 -35 -25 -35 -16 0 -14 12 17 92 16 40 37 95 46 121 26 68 52 63 83
-18z m693 55 c0 -5 -18 -10 -40 -10 l-40 0 0 -120 c0 -99 -3 -120 -15 -120
-12 0 -15 22 -17 118 l-3 117 -42 3 c-84 6 -42 22 57 22 60 0 100 -4 100 -10z
m310 0 c0 -6 -28 -10 -65 -10 l-65 0 0 -45 0 -45 50 0 c35 0 50 -4 50 -13 0
-8 -8 -14 -17 -14 -82 1 -83 0 -83 -48 l0 -45 65 0 c51 0 65 -3 65 -15 0 -12
-16 -15 -80 -15 l-80 0 0 130 0 130 80 0 c47 0 80 -4 80 -10z m298 -6 c33 -23
31 -86 -4 -113 l-26 -20 30 -43 c44 -66 45 -68 25 -68 -11 1 -32 23 -53 55
-25 41 -40 55 -57 55 -21 0 -23 -4 -23 -55 0 -42 -3 -55 -15 -55 -13 0 -15 21
-15 130 l0 130 58 0 c36 0 66 -6 80 -16z m237 -40 c17 -31 35 -57 40 -58 6 0
23 23 39 52 26 49 50 72 62 60 2 -3 -16 -40 -41 -82 -37 -63 -45 -85 -45 -126
0 -38 -4 -50 -15 -50 -11 0 -15 13 -15 53 0 33 -7 63 -18 82 -71 117 -75 125
-55 125 12 0 28 -20 48 -56z m965 10 c49 -113 80 -214 65 -214 -7 0 -19 16
-25 35 l-12 35 -63 0 -64 0 -12 -35 c-8 -21 -20 -35 -30 -35 -15 0 -12 12 18
88 20 48 43 106 52 130 22 57 46 56 71 -4z m368 29 c11 -10 23 -31 26 -46 5
-23 1 -34 -24 -58 l-30 -31 35 -49 c40 -55 41 -59 20 -59 -8 0 -31 25 -51 55
-27 41 -43 55 -60 55 -22 0 -24 -4 -24 -55 0 -42 -3 -55 -15 -55 -13 0 -15 21
-15 130 l0 130 59 0 c42 0 65 -5 79 -17z m381 2 c34 -17 61 -70 61 -118 0 -39
-34 -96 -70 -115 -38 -19 -116 -10 -145 18 -62 58 -52 178 17 217 31 17 103
16 137 -2z m779 -12 c37 -101 82 -226 82 -229 0 -2 -6 -4 -14 -4 -8 0 -20 16
-26 35 l-12 35 -63 0 -63 0 -12 -35 c-6 -19 -18 -35 -26 -35 -17 0 -17 2 -4
32 5 13 26 66 46 118 44 115 41 110 64 110 11 0 22 -11 28 -27z m-1968 -117
c0 -35 -25 -52 -55 -38 -35 16 -32 61 5 74 24 8 50 -11 50 -36z"/>
<path d="M8304 9096 c-135 -94 -247 -212 -296 -311 -51 -101 -63 -153 -63
-275 0 -151 5 -170 49 -170 29 0 35 5 52 41 18 41 18 42 -5 128 -13 47 -26 97
-28 111 -7 41 44 -58 57 -112 7 -27 15 -48 20 -48 8 0 51 94 70 154 9 27 11
71 6 140 -4 73 -3 96 4 84 6 -10 14 -40 17 -68 3 -27 9 -50 13 -50 5 0 15 19
23 43 89 246 117 332 115 343 -2 8 -13 5 -34 -10z"/>
<path d="M8310 8914 c-34 -102 -60 -187 -57 -190 2 -3 29 14 58 37 60 47 48
28 -44 -67 -48 -50 -64 -76 -93 -153 -19 -52 -33 -95 -31 -97 2 -3 34 9 71 26
38 16 71 30 74 30 4 0 -38 -28 -91 -61 -116 -73 -132 -96 -107 -152 l17 -38
53 42 c120 95 184 180 227 304 25 73 28 93 28 225 0 139 -18 280 -35 280 -5 0
-36 -84 -70 -186z"/>
<path d="M6771 8699 c-24 -48 -82 -138 -128 -200 -94 -127 -107 -148 -134
-227 -23 -67 -25 -203 -5 -283 18 -69 99 -260 112 -262 5 -1 25 29 44 68 52
103 45 155 -40 280 -42 63 -74 121 -58 105 31 -31 116 -137 141 -174 l26 -40
21 46 c11 25 26 79 34 119 16 85 6 138 -45 248 -16 35 -28 65 -27 67 2 1 23
-29 48 -67 25 -38 48 -69 52 -69 21 0 34 449 13 468 -6 6 -26 -23 -54 -79z"/>
<path d="M6858 8773 c-2 -5 -1 -111 2 -236 l5 -228 55 65 c30 35 57 63 59 60
4 -4 -10 -25 -93 -150 -31 -45 -44 -79 -58 -149 -10 -49 -21 -98 -24 -107 -9
-30 12 -21 115 48 97 65 100 67 110 116 35 160 -15 379 -120 529 -44 62 -46
64 -51 52z"/>
<path d="M7651 8441 c-42 -42 -39 -149 7 -241 35 -72 53 -75 80 -12 45 103 38
210 -15 252 -32 25 -48 25 -72 1z"/>
<path d="M8765 8345 c-95 -20 -189 -70 -262 -138 -36 -34 -61 -63 -55 -65 6
-2 43 4 83 12 66 14 77 20 133 74 79 75 111 98 64 45 -42 -47 -73 -92 -67 -97
7 -6 161 23 209 39 25 8 61 26 80 38 90 61 96 62 45 9 l-49 -52 54 0 c66 0
302 30 313 40 14 13 -154 67 -273 89 -129 24 -189 25 -275 6z"/>
<path d="M7933 8291 c-65 -30 -163 -129 -163 -166 0 -10 82 -5 151 11 84 19
129 57 129 108 0 36 -25 66 -56 66 -10 0 -38 -9 -61 -19z"/>
<path d="M7390 8287 c-89 -44 45 -179 194 -194 51 -5 56 -4 56 13 0 24 -21 56
-69 107 -59 64 -138 95 -181 74z"/>
<path d="M9210 8205 c-36 -7 -103 -17 -150 -21 -133 -11 -137 -15 -55 -57 86
-44 79 -46 -23 -8 -42 16 -88 32 -101 36 -29 9 -211 -4 -211 -15 0 -4 32 -31
71 -60 76 -57 87 -78 18 -34 -75 47 -143 74 -187 74 -45 0 -131 -18 -145 -30
-10 -9 190 -76 267 -90 86 -15 223 -12 291 5 33 9 87 29 120 45 63 31 215 144
215 161 0 12 -29 10 -110 -6z"/>
<path d="M6940 8064 c-142 -114 -166 -141 -220 -245 -28 -56 -49 -103 -46
-106 8 -8 112 72 172 132 28 28 67 75 87 105 37 57 82 161 69 159 -4 0 -32
-20 -62 -45z"/>
<path d="M7788 8064 c-18 -18 -4 -45 52 -98 93 -89 170 -114 214 -70 41 41
-12 119 -101 148 -58 19 -155 31 -165 20z"/>
<path d="M7551 8019 c-124 -40 -189 -106 -163 -164 25 -54 127 -24 200 59 40
46 65 94 58 112 -7 18 -17 17 -95 -7z"/>
<path d="M7702 7997 c-15 -17 -31 -93 -32 -142 0 -120 69 -197 126 -140 24 25
26 31 22 103 -3 69 -8 83 -41 135 -37 57 -55 68 -75 44z"/>
<path d="M8240 7923 c0 -16 104 -83 144 -93 22 -6 61 -17 86 -24 l45 -15 -45
5 c-25 3 -57 7 -72 9 -16 3 -28 1 -28 -4 0 -21 128 -125 198 -162 75 -39 76
-40 35 -34 -24 3 -43 2 -43 -2 0 -19 223 -268 228 -254 6 17 -36 148 -73 228
-40 86 -97 174 -143 220 -44 44 -153 98 -227 112 -33 7 -70 14 -82 17 -13 2
-23 1 -23 -3z"/>
<path d="M8190 7893 c0 -36 50 -204 76 -254 34 -67 144 -176 220 -216 61 -33
265 -106 273 -98 5 5 -42 58 -157 178 -46 49 -86 87 -88 84 -2 -2 2 -37 10
-78 8 -41 12 -76 11 -78 -4 -3 -34 96 -55 176 -7 29 -29 62 -68 104 l-57 62
-5 -84 -5 -84 -13 75 c-20 112 -38 153 -80 187 -55 44 -62 47 -62 26z"/>
<path d="M7080 7634 c-123 -15 -275 -64 -197 -64 13 0 57 -9 98 -20 41 -11 92
-20 114 -20 41 -1 275 68 275 80 0 16 -215 33 -290 24z"/>
<path d="M7350 7569 c-14 -5 -55 -21 -92 -35 -38 -14 -68 -29 -68 -33 0 -4 48
-28 108 -53 l107 -45 105 4 c58 3 116 1 130 -5 21 -8 11 -11 -63 -22 -48 -6
-87 -13 -87 -15 0 -2 33 -21 73 -43 81 -45 215 -141 283 -204 24 -23 47 -38
51 -35 8 8 -28 93 -74 177 -51 92 -208 247 -292 288 -67 33 -130 41 -181 21z"/>
<path d="M6830 7524 c0 -23 105 -168 179 -247 69 -74 189 -143 298 -171 35 -9
144 -21 244 -26 100 -6 213 -17 253 -25 39 -8 72 -15 74 -15 24 0 -98 102
-232 193 -79 53 -174 103 -182 94 -3 -3 2 -20 12 -38 24 -48 65 -171 53 -164
-5 4 -26 39 -46 78 -77 154 -117 187 -281 237 -73 22 -94 22 -75 -2 15 -19 86
-229 79 -235 -5 -5 -66 119 -66 133 0 3 -21 39 -47 80 -44 68 -52 76 -98 90
-61 19 -165 30 -165 18z"/>
<path d="M8207 5951 c-49 -4 -81 -11 -86 -19 -20 -33 -40 -857 -21 -891 l12
-23 191 4 c220 6 284 20 377 85 163 115 217 383 119 600 -37 83 -69 124 -132
167 -90 62 -271 92 -460 77z"/>
<path d="M10652 5693 c-6 -16 -52 -138 -101 -273 -49 -135 -124 -337 -166
-449 -53 -144 -73 -207 -65 -215 12 -12 714 -16 726 -4 8 8 7 10 -166 453 -65
165 -135 348 -156 407 -22 60 -44 108 -50 108 -6 0 -16 -12 -22 -27z"/>
<path d="M4253 3435 c-107 -64 -116 -262 -16 -333 106 -75 255 -38 305 75 42
96 4 219 -82 263 -58 30 -152 28 -207 -5z"/>
<path d="M8113 3433 c-59 -38 -87 -93 -87 -168 0 -74 26 -130 74 -163 142 -96
320 -2 320 169 0 59 -43 134 -92 163 -64 37 -157 37 -215 -1z"/>
<path d="M9580 3360 l0 -100 101 0 c98 0 101 1 130 29 23 23 29 38 29 71 0 33
-6 48 -29 71 -29 28 -32 29 -130 29 l-101 0 0 -100z"/>
<path d="M10268 3325 c-27 -63 -48 -120 -48 -125 0 -12 197 -14 203 -2 5 9
-93 242 -102 242 -3 0 -27 -52 -53 -115z"/>
<path d="M5720 1917 c-57 -29 -68 -120 -21 -168 54 -54 143 -28 157 46 17 92
-59 161 -136 122z"/>
<path d="M6471 1855 c-12 -31 -21 -58 -21 -60 0 -3 20 -5 45 -5 29 0 45 4 45
13 0 20 -33 107 -41 107 -4 0 -17 -25 -28 -55z"/>
<path d="M7614 1907 c-20 -18 -28 -35 -32 -75 -4 -47 -2 -54 26 -82 82 -82
195 11 148 123 -24 59 -93 75 -142 34z"/>
<path d="M7996 1915 c-3 -9 -6 -32 -6 -51 0 -33 1 -34 38 -34 27 0 45 7 58 21
17 19 17 23 3 47 -18 33 -82 44 -93 17z"/>
<path d="M9561 1855 c-12 -31 -21 -58 -21 -60 0 -3 22 -5 49 -5 l48 0 -21 60
c-12 33 -24 60 -28 60 -4 0 -16 -25 -27 -55z"/>
<path d="M5605 1411 c-52 -22 -75 -87 -51 -144 17 -42 41 -57 91 -57 55 0 85
35 85 99 0 37 -6 56 -22 75 -25 28 -72 40 -103 27z"/>
<path d="M5220 1371 c0 -47 1 -49 30 -53 38 -6 70 16 70 47 0 33 -26 55 -66
55 l-34 0 0 -49z"/>
<path d="M5995 1363 c-9 -24 -20 -41 -24 -39 -4 3 -6 -8 -5 -22 1 -24 5 -27
39 -30 55 -5 60 7 32 74 l-25 59 -17 -42z"/>
<path d="M7250 1370 l0 -50 38 0 c45 0 62 14 62 52 0 32 -24 48 -69 48 -30 0
-31 -1 -31 -50z"/>
<path d="M8498 1347 c-10 -30 -18 -57 -18 -60 0 -4 20 -7 45 -7 25 0 45 1 45
3 0 14 -40 112 -47 114 -4 2 -16 -21 -25 -50z"/>
<path d="M8822 1368 l3 -53 34 3 c45 3 61 18 61 53 0 33 -23 49 -70 49 l-31 0
3 -52z"/>
<path d="M9200 1407 c-14 -7 -33 -29 -44 -51 -35 -72 10 -146 89 -146 44 0 84
36 86 77 2 60 -3 79 -32 106 -32 29 -60 34 -99 14z"/>
<path d="M10044 1384 c-3 -10 -12 -36 -19 -58 -8 -21 -12 -43 -9 -47 6 -10 77
-12 86 -4 5 6 -34 110 -45 122 -4 3 -9 -3 -13 -13z"/>
</g>
</svg>
